# WaveFront *.obj file (generated by Autodesk ATF)

mtllib 1c4ccd39-4005-4821-81a9-6d35d04b484a.mtl

g Body1

v -30.000000 -40.000000 30.000000
v -30.000000 -39.491072 37.115742
v -30.000000 -37.974649 44.086628
v -30.000000 -35.481600 50.770751
v -30.000000 -32.062677 57.032041
v -30.000000 -27.787479 62.743037
v -30.000000 -22.743037 67.787479
v -30.000000 -17.032041 72.062677
v -30.000000 -10.770751 75.481600
v -30.000000 -4.086628 77.974649
v -30.000000 2.884258 79.491072
v -30.000000 10.000000 80.000000
v -50.000000 10.000000 80.000000
v -50.000000 2.884258 79.491072
v -50.000000 -4.086628 77.974649
v -50.000000 -10.770751 75.481600
v -50.000000 -17.032041 72.062677
v -50.000000 -22.743037 67.787479
v -50.000000 -27.787479 62.743037
v -50.000000 -32.062677 57.032041
v -50.000000 -35.481600 50.770751
v -50.000000 -37.974649 44.086628
v -50.000000 -39.491072 37.115742
v -50.000000 -40.000000 30.000000
v -30.000000 40.000000 80.000000
v -50.000000 40.000000 80.000000
v -30.000000 -40.000000 20.000000
v -30.000000 0.000000 20.000000
v -30.000000 0.000000 50.000000
v -30.000000 40.000000 50.000000
v 4.166345 40.000000 50.000000
v 3.768824 40.000000 46.980528
v 2.603351 40.000000 44.166827
v 0.749352 40.000000 41.750648
v -1.666827 40.000000 39.896649
v -4.480528 40.000000 38.731176
v -7.500000 40.000000 38.333655
v -10.519472 40.000000 38.731176
v -13.333173 40.000000 39.896649
v -15.749352 40.000000 41.750648
v -17.603351 40.000000 44.166827
v -18.768824 40.000000 46.980528
v -19.166345 40.000000 50.000000
v -19.166345 0.000000 50.000000
v -18.768824 0.000000 46.980528
v -17.603351 0.000000 44.166827
v -15.749352 0.000000 41.750648
v -13.333173 0.000000 39.896649
v -10.519472 0.000000 38.731176
v -7.500000 0.000000 38.333655
v -4.480528 0.000000 38.731176
v -1.666827 0.000000 39.896649
v 0.749352 0.000000 41.750648
v 2.603351 0.000000 44.166827
v 3.768824 0.000000 46.980528
v 4.166345 0.000000 50.000000
v 15.000000 40.000000 50.000000
v 15.000000 40.000000 20.000000
v 50.000000 40.000000 20.000000
v 50.000000 40.000000 0.000000
v -50.000000 40.000000 0.000000
v 15.000000 0.000000 50.000000
v 50.000000 -10.000000 0.000000
v 30.000000 -10.000000 0.000000
v 30.000000 -10.000000 20.000000
v 50.000000 -10.000000 20.000000
v 30.000000 10.000000 0.000000
v 50.000000 10.000000 0.000000
v 50.000000 10.000000 20.000000
v 30.000000 10.000000 20.000000
v 27.411810 -9.659258 0.000000
v 25.000000 -8.660254 0.000000
v 22.928932 -7.071068 0.000000
v 21.339746 -5.000000 0.000000
v 20.340742 -2.588190 0.000000
v 20.000000 0.000000 0.000000
v 20.340742 2.588190 0.000000
v 21.339746 5.000000 0.000000
v 22.928932 7.071068 0.000000
v 25.000000 8.660254 0.000000
v 27.411810 9.659258 0.000000
v 27.411810 9.659258 20.000000
v 25.000000 8.660254 20.000000
v 22.928932 7.071068 20.000000
v 21.339746 5.000000 20.000000
v 20.340742 2.588190 20.000000
v 20.000000 0.000000 20.000000
v 20.340742 -2.588190 20.000000
v 21.339746 -5.000000 20.000000
v 22.928932 -7.071068 20.000000
v 25.000000 -8.660254 20.000000
v 27.411810 -9.659258 20.000000
v 50.000000 -40.000000 20.000000
v 50.000000 -40.000000 0.000000
v 15.000000 0.000000 20.000000
v -50.000000 -40.000000 0.000000
vt 0.500000 3.926991 0.000000
vt -1.500000 3.926991 0.000000
vt 0.500000 3.212992 0.000000
vt -1.500000 3.212992 0.000000
vt 0.500000 2.498994 0.000000
vt -1.500000 2.498994 0.000000
vt 0.500000 1.784996 0.000000
vt -1.500000 1.784996 0.000000
vt 0.500000 1.070997 0.000000
vt -1.500000 1.070997 0.000000
vt 0.500000 0.356999 0.000000
vt -1.500000 0.356999 0.000000
vt 0.500000 -0.356999 0.000000
vt -1.500000 -0.356999 0.000000
vt 0.500000 -1.070997 0.000000
vt -1.500000 -1.070997 0.000000
vt 0.500000 -1.784996 0.000000
vt -1.500000 -1.784996 0.000000
vt 0.500000 -2.498994 0.000000
vt -1.500000 -2.498994 0.000000
vt 0.500000 -3.212992 0.000000
vt -1.500000 -3.212992 0.000000
vt 0.500000 -3.926991 0.000000
vt -1.500000 -3.926991 0.000000
vt -1.000000 1.000000 0.000000
vt 1.000000 1.000000 0.000000
vt -1.000000 4.000000 0.000000
vt 1.000000 4.000000 0.000000
vt 4.288426 5.949107 0.000000
vt 4.000000 3.000000 0.000000
vt 5.000000 6.000000 0.000000
vt 8.000000 3.000000 0.000000
vt 8.000000 6.000000 0.000000
vt 3.591337 5.797465 0.000000
vt 2.922925 5.548160 0.000000
vt 2.296796 5.206268 0.000000
vt 1.725696 4.778748 0.000000
vt 1.221252 4.274304 0.000000
vt 0.793732 3.703204 0.000000
vt 0.451840 3.077075 0.000000
vt 0.202535 2.408663 0.000000
vt 0.050893 1.711574 0.000000
vt 4.000000 0.000000 0.000000
vt 0.000000 1.000000 0.000000
vt 0.000000 0.000000 0.000000
vt 0.000000 0.000000 0.000000
vt 4.000000 0.000000 0.000000
vt 0.000000 0.305424 0.000000
vt 4.000000 0.305424 0.000000
vt 0.000000 0.610848 0.000000
vt 4.000000 0.610848 0.000000
vt 0.000000 0.916273 0.000000
vt 4.000000 0.916273 0.000000
vt 0.000000 1.221697 0.000000
vt 4.000000 1.221697 0.000000
vt 0.000000 1.527121 0.000000
vt 4.000000 1.527121 0.000000
vt 0.000000 1.832545 0.000000
vt 4.000000 1.832545 0.000000
vt 0.000000 2.137969 0.000000
vt 4.000000 2.137969 0.000000
vt 0.000000 2.443394 0.000000
vt 4.000000 2.443394 0.000000
vt 0.000000 2.748818 0.000000
vt 4.000000 2.748818 0.000000
vt 0.000000 3.054242 0.000000
vt 4.000000 3.054242 0.000000
vt 0.000000 3.359666 0.000000
vt 4.000000 3.359666 0.000000
vt 0.000000 3.665090 0.000000
vt 4.000000 3.665090 0.000000
vt 6.916635 5.000000 0.000000
vt 6.876882 4.698053 0.000000
vt 8.000000 5.000000 0.000000
vt 6.760335 4.416683 0.000000
vt 6.574935 4.175065 0.000000
vt 10.000000 0.000000 0.000000
vt 6.333317 3.989665 0.000000
vt 6.051947 3.873118 0.000000
vt 3.500000 2.000000 0.000000
vt 5.750000 3.833365 0.000000
vt 5.448053 3.873118 0.000000
vt 5.166683 3.989665 0.000000
vt 4.925065 4.175065 0.000000
vt 4.739665 4.416683 0.000000
vt 3.500000 5.000000 0.000000
vt 4.623118 4.698053 0.000000
vt 4.583365 5.000000 0.000000
vt -0.000000 2.000000 0.000000
vt -0.000000 0.000000 0.000000
vt 10.000000 8.000000 0.000000
vt 8.000000 8.000000 0.000000
vt 1.166635 -2.000000 0.000000
vt 2.250000 -2.000000 0.000000
vt 1.166635 2.000000 0.000000
vt 2.250000 2.000000 0.000000
vt -0.000000 2.000000 0.000000
vt -2.000000 2.000000 0.000000
vt -0.000000 0.000000 0.000000
vt -2.000000 0.000000 0.000000
vt -0.000000 2.000000 0.000000
vt -2.000000 2.000000 0.000000
vt -0.000000 0.000000 0.000000
vt -2.000000 0.000000 0.000000
vt 0.000000 -3.141593 0.000000
vt 2.000000 -3.141593 0.000000
vt -0.000000 -2.879793 0.000000
vt 2.000000 -2.879793 0.000000
vt -0.000000 -2.617994 0.000000
vt 2.000000 -2.617994 0.000000
vt -0.000000 -2.356194 0.000000
vt 2.000000 -2.356194 0.000000
vt -0.000000 -2.094395 0.000000
vt 2.000000 -2.094395 0.000000
vt -0.000000 -1.832596 0.000000
vt 2.000000 -1.832596 0.000000
vt 0.000000 -1.570796 0.000000
vt 2.000000 -1.570796 0.000000
vt 0.000000 -1.308997 0.000000
vt 2.000000 -1.308997 0.000000
vt 0.000000 -1.047198 0.000000
vt 2.000000 -1.047198 0.000000
vt 0.000000 -0.785398 0.000000
vt 2.000000 -0.785398 0.000000
vt 0.000000 -0.523599 0.000000
vt 2.000000 -0.523599 0.000000
vt 0.000000 -0.261799 0.000000
vt 2.000000 -0.261799 0.000000
vt 0.000000 0.000000 0.000000
vt 2.000000 0.000000 0.000000
vt 5.000000 0.000000 0.000000
vt 8.000000 0.000000 0.000000
vt 5.000000 2.000000 0.000000
vt 8.000000 2.000000 0.000000
vt 3.000000 2.000000 0.000000
vt 0.000000 2.000000 0.000000
vt 3.000000 0.000000 0.000000
vt 0.000000 0.000000 0.000000
vt 5.000000 -1.000000 0.000000
vt 3.000000 -1.000000 0.000000
vt 5.000000 -4.000000 0.000000
vt 2.741181 -0.965926 0.000000
vt 2.500000 -0.866025 0.000000
vt -3.000000 -4.000000 0.000000
vt 2.292893 -0.707107 0.000000
vt 1.500000 0.000000 0.000000
vt 2.133975 -0.500000 0.000000
vt 2.034074 -0.258819 0.000000
vt 2.000000 0.000000 0.000000
vt 2.034074 0.258819 0.000000
vt 2.133975 0.500000 0.000000
vt 1.500000 4.000000 0.000000
vt 2.292893 0.707107 0.000000
vt 2.500000 0.866025 0.000000
vt 2.741181 0.965926 0.000000
vt 3.000000 1.000000 0.000000
vt 5.000000 4.000000 0.000000
vt 5.000000 1.000000 0.000000
vt -3.000000 0.000000 0.000000
vt 0.000000 0.000000 0.000000
vt 4.000000 0.000000 0.000000
vt 0.000000 3.000000 0.000000
vt 4.000000 3.000000 0.000000
vt 3.416635 3.000000 0.000000
vt 3.376882 2.698053 0.000000
vt 4.500000 3.000000 0.000000
vt 3.260335 2.416683 0.000000
vt 3.074935 2.175065 0.000000
vt 4.500000 0.000000 0.000000
vt 2.833317 1.989665 0.000000
vt 2.551947 1.873118 0.000000
vt 2.250000 1.833365 0.000000
vt 0.000000 0.000000 0.000000
vt 1.948053 1.873118 0.000000
vt 1.666683 1.989665 0.000000
vt 1.425065 2.175065 0.000000
vt 0.000000 3.000000 0.000000
vt 1.239665 2.416683 0.000000
vt 1.123118 2.698053 0.000000
vt 1.083365 3.000000 0.000000
vt -1.166635 2.000000 0.000000
vt -2.250000 2.000000 0.000000
vt -1.166635 -2.000000 0.000000
vt -2.250000 -2.000000 0.000000
vt 8.000000 0.000000 0.000000
vt 8.000000 3.000000 0.000000
vt -0.000000 0.000000 0.000000
vt 7.949107 3.711574 0.000000
vt 7.797465 4.408663 0.000000
vt 7.548160 5.077075 0.000000
vt 7.206268 5.703204 0.000000
vt 6.778748 6.274304 0.000000
vt 6.274304 6.778748 0.000000
vt 5.703204 7.206268 0.000000
vt 5.077075 7.548160 0.000000
vt 4.408663 7.797465 0.000000
vt 3.711574 7.949107 0.000000
vt 3.000000 8.000000 0.000000
vt -0.000000 8.000000 0.000000
vt 2.000000 3.000000 0.000000
vt 0.000000 3.000000 0.000000
vt 2.000000 2.000000 0.000000
vt 0.000000 0.000000 0.000000
vt 10.000000 0.000000 0.000000
vt 10.000000 2.000000 0.000000
vt -5.000000 -1.000000 0.000000
vt -5.000000 -4.000000 0.000000
vt -3.000000 -1.000000 0.000000
vt -2.741181 -0.965926 0.000000
vt -2.500000 -0.866025 0.000000
vt 5.000000 -4.000000 0.000000
vt -2.292893 -0.707107 0.000000
vt -2.133975 -0.500000 0.000000
vt -2.034074 -0.258819 0.000000
vt -2.000000 0.000000 0.000000
vt 5.000000 4.000000 0.000000
vt -2.034074 0.258819 0.000000
vt -2.133975 0.500000 0.000000
vt -2.292893 0.707107 0.000000
vt -2.500000 0.866025 0.000000
vt -5.000000 4.000000 0.000000
vt -2.741181 0.965926 0.000000
vt -3.000000 1.000000 0.000000
vt -5.000000 1.000000 0.000000
vn 0.000000 -0.100000 0.000000
vn 0.000000 -0.100000 0.000000
vn 0.000000 -0.098982 0.014231
vn 0.000000 -0.098982 0.014231
vn 0.000000 -0.095949 0.028173
vn 0.000000 -0.095949 0.028173
vn 0.000000 -0.090963 0.041542
vn 0.000000 -0.090963 0.041542
vn 0.000000 -0.084125 0.054064
vn 0.000000 -0.084125 0.054064
vn 0.000000 -0.075575 0.065486
vn 0.000000 -0.075575 0.065486
vn 0.000000 -0.065486 0.075575
vn 0.000000 -0.065486 0.075575
vn 0.000000 -0.054064 0.084125
vn 0.000000 -0.054064 0.084125
vn 0.000000 -0.041542 0.090963
vn 0.000000 -0.041542 0.090963
vn 0.000000 -0.028173 0.095949
vn 0.000000 -0.028173 0.095949
vn 0.000000 -0.014231 0.098982
vn 0.000000 -0.014231 0.098982
vn 0.000000 0.000000 0.100000
vn 0.000000 0.000000 0.100000
vn 0.000000 0.000000 0.100000
vn 0.000000 0.000000 0.100000
vn 0.100000 0.000000 0.000000
vn 0.100000 0.000000 0.000000
vn 0.100000 0.000000 0.000000
vn 0.100000 0.000000 0.000000
vn 0.100000 0.000000 0.000000
vn 0.100000 0.000000 0.000000
vn 0.100000 0.000000 0.000000
vn 0.100000 0.000000 0.000000
vn 0.100000 0.000000 0.000000
vn 0.100000 0.000000 0.000000
vn 0.100000 0.000000 0.000000
vn 0.100000 0.000000 0.000000
vn 0.100000 0.000000 0.000000
vn 0.100000 0.000000 0.000000
vn 0.100000 0.000000 0.000000
vn 0.100000 0.000000 0.000000
vn 0.100000 0.000000 0.000000
vn -0.100000 0.000000 0.000000
vn -0.100000 0.000000 0.000000
vn -0.096593 0.000000 0.025882
vn -0.096593 0.000000 0.025882
vn -0.086603 0.000000 0.050000
vn -0.086603 0.000000 0.050000
vn -0.070711 0.000000 0.070711
vn -0.070711 0.000000 0.070711
vn -0.050000 0.000000 0.086603
vn -0.050000 0.000000 0.086603
vn -0.025882 0.000000 0.096593
vn -0.025882 0.000000 0.096593
vn -0.000000 0.000000 0.100000
vn -0.000000 0.000000 0.100000
vn 0.025882 -0.000000 0.096593
vn 0.025882 -0.000000 0.096593
vn 0.050000 -0.000000 0.086603
vn 0.050000 -0.000000 0.086603
vn 0.070711 -0.000000 0.070711
vn 0.070711 -0.000000 0.070711
vn 0.086603 -0.000000 0.050000
vn 0.086603 -0.000000 0.050000
vn 0.096593 -0.000000 0.025882
vn 0.096593 -0.000000 0.025882
vn 0.100000 -0.000000 0.000000
vn 0.100000 -0.000000 0.000000
vn 0.000000 0.100000 0.000000
vn 0.000000 0.100000 0.000000
vn 0.000000 0.100000 0.000000
vn 0.000000 0.100000 0.000000
vn 0.000000 0.100000 0.000000
vn 0.000000 0.100000 0.000000
vn 0.000000 0.100000 0.000000
vn 0.000000 0.100000 0.000000
vn 0.000000 0.100000 0.000000
vn 0.000000 0.100000 0.000000
vn 0.000000 0.100000 0.000000
vn 0.000000 0.100000 0.000000
vn 0.000000 0.100000 0.000000
vn 0.000000 0.100000 0.000000
vn 0.000000 0.100000 0.000000
vn 0.000000 0.100000 0.000000
vn 0.000000 0.100000 0.000000
vn 0.000000 0.100000 0.000000
vn 0.000000 0.100000 0.000000
vn 0.000000 0.100000 0.000000
vn 0.000000 0.100000 0.000000
vn 0.000000 0.000000 0.100000
vn 0.000000 0.000000 0.100000
vn 0.000000 0.000000 0.100000
vn 0.000000 0.000000 0.100000
vn 0.000000 0.100000 0.000000
vn 0.000000 0.100000 0.000000
vn 0.000000 0.100000 0.000000
vn 0.000000 0.100000 0.000000
vn 0.000000 -0.100000 0.000000
vn 0.000000 -0.100000 0.000000
vn 0.000000 -0.100000 0.000000
vn 0.000000 -0.100000 0.000000
vn 0.025882 0.096593 0.000000
vn 0.025882 0.096593 0.000000
vn 0.050000 0.086603 0.000000
vn 0.050000 0.086603 0.000000
vn 0.070711 0.070711 0.000000
vn 0.070711 0.070711 0.000000
vn 0.086603 0.050000 0.000000
vn 0.086603 0.050000 0.000000
vn 0.096593 0.025882 0.000000
vn 0.096593 0.025882 0.000000
vn 0.100000 -0.000000 0.000000
vn 0.100000 -0.000000 0.000000
vn 0.096593 -0.025882 0.000000
vn 0.096593 -0.025882 0.000000
vn 0.086603 -0.050000 0.000000
vn 0.086603 -0.050000 0.000000
vn 0.070711 -0.070711 0.000000
vn 0.070711 -0.070711 0.000000
vn 0.050000 -0.086603 0.000000
vn 0.050000 -0.086603 0.000000
vn 0.025882 -0.096593 0.000000
vn 0.025882 -0.096593 0.000000
vn 0.100000 0.000000 0.000000
vn 0.100000 0.000000 0.000000
vn 0.100000 0.000000 0.000000
vn 0.100000 0.000000 0.000000
vn 0.100000 0.000000 0.000000
vn 0.100000 0.000000 0.000000
vn 0.100000 0.000000 0.000000
vn 0.100000 0.000000 0.000000
vn 0.000000 0.000000 0.100000
vn 0.000000 0.000000 0.100000
vn 0.000000 0.000000 0.100000
vn 0.000000 0.000000 0.100000
vn 0.000000 0.000000 0.100000
vn 0.000000 0.000000 0.100000
vn 0.000000 0.000000 0.100000
vn 0.000000 0.000000 0.100000
vn 0.000000 0.000000 0.100000
vn 0.000000 0.000000 0.100000
vn 0.000000 0.000000 0.100000
vn 0.000000 0.000000 0.100000
vn 0.000000 0.000000 0.100000
vn 0.000000 0.000000 0.100000
vn 0.000000 0.000000 0.100000
vn 0.000000 0.000000 0.100000
vn 0.000000 0.000000 0.100000
vn 0.000000 0.000000 0.100000
vn 0.000000 0.000000 0.100000
vn 0.000000 0.000000 0.100000
vn 0.000000 0.000000 0.100000
vn 0.100000 0.000000 0.000000
vn 0.100000 0.000000 0.000000
vn 0.100000 0.000000 0.000000
vn 0.100000 0.000000 0.000000
vn 0.000000 -0.100000 0.000000
vn 0.000000 -0.100000 0.000000
vn 0.000000 -0.100000 0.000000
vn 0.000000 -0.100000 0.000000
vn 0.000000 -0.100000 0.000000
vn 0.000000 -0.100000 0.000000
vn 0.000000 -0.100000 0.000000
vn 0.000000 -0.100000 0.000000
vn 0.000000 -0.100000 0.000000
vn 0.000000 -0.100000 0.000000
vn 0.000000 -0.100000 0.000000
vn 0.000000 -0.100000 0.000000
vn 0.000000 -0.100000 0.000000
vn 0.000000 -0.100000 0.000000
vn 0.000000 -0.100000 0.000000
vn 0.000000 -0.100000 0.000000
vn 0.000000 -0.100000 0.000000
vn 0.000000 0.000000 0.100000
vn 0.000000 0.000000 0.100000
vn 0.000000 0.000000 0.100000
vn 0.000000 0.000000 0.100000
vn -0.100000 0.000000 0.000000
vn -0.100000 0.000000 0.000000
vn -0.100000 0.000000 0.000000
vn -0.100000 0.000000 0.000000
vn -0.100000 0.000000 0.000000
vn -0.100000 0.000000 0.000000
vn -0.100000 0.000000 0.000000
vn -0.100000 0.000000 0.000000
vn -0.100000 0.000000 0.000000
vn -0.100000 0.000000 0.000000
vn -0.100000 0.000000 0.000000
vn -0.100000 0.000000 0.000000
vn -0.100000 0.000000 0.000000
vn -0.100000 0.000000 0.000000
vn -0.100000 0.000000 0.000000
vn 0.000000 -0.100000 0.000000
vn 0.000000 -0.100000 0.000000
vn 0.000000 -0.100000 0.000000
vn 0.000000 -0.100000 0.000000
vn -0.000000 0.000000 -0.100000
vn -0.000000 0.000000 -0.100000
vn -0.000000 0.000000 -0.100000
vn -0.000000 0.000000 -0.100000
vn -0.000000 0.000000 -0.100000
vn -0.000000 0.000000 -0.100000
vn -0.000000 0.000000 -0.100000
vn -0.000000 0.000000 -0.100000
vn -0.000000 0.000000 -0.100000
vn -0.000000 0.000000 -0.100000
vn -0.000000 0.000000 -0.100000
vn -0.000000 0.000000 -0.100000
vn -0.000000 0.000000 -0.100000
vn -0.000000 0.000000 -0.100000
vn -0.000000 0.000000 -0.100000
vn -0.000000 0.000000 -0.100000
vn -0.000000 0.000000 -0.100000
vn -0.000000 0.000000 -0.100000
vn -0.000000 0.000000 -0.100000
usemtl Steel_-_Satin
f 24/1/1 1/2/2 23/3/3
f 23/3/3 1/2/2 2/4/4
f 23/3/3 2/4/4 22/5/5
f 22/5/5 2/4/4 3/6/6
f 22/5/5 3/6/6 21/7/7
f 21/7/7 3/6/6 4/8/8
f 21/7/7 4/8/8 20/9/9
f 20/9/9 4/8/8 5/10/10
f 20/9/9 5/10/10 19/11/11
f 19/11/11 5/10/10 6/12/12
f 19/11/11 6/12/12 18/13/13
f 18/13/13 6/12/12 7/14/14
f 18/13/13 7/14/14 17/15/15
f 17/15/15 7/14/14 8/16/16
f 17/15/15 8/16/16 16/17/17
f 16/17/17 8/16/16 9/18/18
f 16/17/17 9/18/18 15/19/19
f 15/19/19 9/18/18 10/20/20
f 15/19/19 10/20/20 14/21/21
f 14/21/21 10/20/20 11/22/22
f 14/21/21 11/22/22 13/23/23
f 13/23/23 11/22/22 12/24/24
f 13/25/23 12/26/24 26/27/25
f 26/27/25 12/26/24 25/28/26
f 11/29/27 29/30/28 12/31/29
f 12/31/29 29/30/28 30/32/30
f 12/31/29 30/32/30 25/33/31
f 11/29/27 10/34/32 29/30/28
f 29/30/28 10/34/32 9/35/33
f 29/30/28 9/35/33 8/36/34
f 8/36/34 7/37/35 29/30/28
f 29/30/28 7/37/35 6/38/36
f 29/30/28 6/38/36 5/39/37
f 5/39/37 4/40/38 29/30/28
f 29/30/28 4/40/38 3/41/39
f 29/30/28 3/41/39 2/42/40
f 29/30/28 2/42/40 28/43/41
f 28/43/41 2/42/40 1/44/42
f 28/43/41 1/44/42 27/45/43
f 56/46/44 31/47/45 55/48/46
f 55/48/46 31/47/45 32/49/47
f 55/48/46 32/49/47 54/50/48
f 54/50/48 32/49/47 33/51/49
f 54/50/48 33/51/49 53/52/50
f 53/52/50 33/51/49 34/53/51
f 53/52/50 34/53/51 52/54/52
f 52/54/52 34/53/51 35/55/53
f 52/54/52 35/55/53 51/56/54
f 51/56/54 35/55/53 36/57/55
f 51/56/54 36/57/55 50/58/56
f 50/58/56 36/57/55 37/59/57
f 50/58/56 37/59/57 49/60/58
f 49/60/58 37/59/57 38/61/59
f 49/60/58 38/61/59 48/62/60
f 48/62/60 38/61/59 39/63/61
f 48/62/60 39/63/61 47/64/62
f 47/64/62 39/63/61 40/65/63
f 47/64/62 40/65/63 46/66/64
f 46/66/64 40/65/63 41/67/65
f 46/66/64 41/67/65 45/68/66
f 45/68/66 41/67/65 42/69/67
f 45/68/66 42/69/67 44/70/68
f 44/70/68 42/69/67 43/71/69
f 43/72/70 42/73/71 30/74/72
f 30/74/72 42/73/71 41/75/73
f 30/74/72 41/75/73 40/76/74
f 30/74/72 40/76/74 61/77/75
f 61/77/75 40/76/74 39/78/76
f 61/77/75 39/78/76 38/79/77
f 61/77/75 38/79/77 58/80/78
f 58/80/78 38/79/77 37/81/79
f 58/80/78 37/81/79 36/82/80
f 36/82/80 35/83/81 58/80/78
f 58/80/78 35/83/81 34/84/82
f 58/80/78 34/84/82 33/85/83
f 58/80/78 33/85/83 57/86/84
f 57/86/84 33/85/83 32/87/85
f 57/86/84 32/87/85 31/88/86
f 59/89/87 60/90/88 58/80/78
f 58/80/78 60/90/88 61/77/75
f 61/77/75 26/91/89 30/74/72
f 30/74/72 26/91/89 25/92/90
f 56/93/91 62/94/92 31/95/93
f 31/95/93 62/94/92 57/96/94
f 63/97/95 64/98/96 66/99/97
f 66/99/97 64/98/96 65/100/98
f 67/101/99 68/102/100 70/103/101
f 70/103/101 68/102/100 69/104/102
f 65/105/98 64/106/96 92/107/103
f 92/107/103 64/106/96 71/108/104
f 92/107/103 71/108/104 91/109/105
f 91/109/105 71/108/104 72/110/106
f 91/109/105 72/110/106 90/111/107
f 90/111/107 72/110/106 73/112/108
f 90/111/107 73/112/108 89/113/109
f 89/113/109 73/112/108 74/114/110
f 89/113/109 74/114/110 88/115/111
f 88/115/111 74/114/110 75/116/112
f 88/115/111 75/116/112 87/117/113
f 87/117/113 75/116/112 76/118/114
f 87/117/113 76/118/114 86/119/115
f 86/119/115 76/118/114 77/120/116
f 86/119/115 77/120/116 85/121/117
f 85/121/117 77/120/116 78/122/118
f 85/121/117 78/122/118 84/123/119
f 84/123/119 78/122/118 79/124/120
f 84/123/119 79/124/120 83/125/121
f 83/125/121 79/124/120 80/126/122
f 83/125/121 80/126/122 82/127/123
f 82/127/123 80/126/122 81/128/124
f 82/127/123 81/128/124 70/129/101
f 70/129/101 81/128/124 67/130/99
f 68/131/125 60/132/126 69/133/127
f 69/133/127 60/132/126 59/134/128
f 66/135/129 93/136/130 63/137/131
f 63/137/131 93/136/130 94/138/132
f 66/139/133 65/140/134 93/141/135
f 93/141/135 65/140/134 92/142/136
f 93/141/135 92/142/136 91/143/137
f 93/141/135 91/143/137 27/144/138
f 27/144/138 91/143/137 90/145/139
f 27/144/138 90/145/139 95/146/140
f 95/146/140 90/145/139 89/147/141
f 95/146/140 89/147/141 88/148/142
f 88/148/142 87/149/143 95/146/140
f 95/146/140 87/149/143 86/150/144
f 95/146/140 86/150/144 85/151/145
f 95/146/140 85/151/145 58/152/146
f 58/152/146 85/151/145 84/153/147
f 58/152/146 84/153/147 83/154/148
f 83/154/148 82/155/149 58/152/146
f 58/152/146 82/155/149 70/156/150
f 58/152/146 70/156/150 59/157/151
f 59/157/151 70/156/150 69/158/152
f 95/146/140 28/159/153 27/144/138
f 95/160/154 58/161/155 62/162/156
f 62/162/156 58/161/155 57/163/157
f 56/164/158 55/165/159 62/166/160
f 62/166/160 55/165/159 54/167/161
f 62/166/160 54/167/161 53/168/162
f 62/166/160 53/168/162 95/169/163
f 95/169/163 53/168/162 52/170/164
f 95/169/163 52/170/164 51/171/165
f 51/171/165 50/172/166 95/169/163
f 95/169/163 50/172/166 28/173/167
f 28/173/167 50/172/166 49/174/168
f 28/173/167 49/174/168 48/175/169
f 48/175/169 47/176/170 28/173/167
f 28/173/167 47/176/170 29/177/171
f 29/177/171 47/176/170 46/178/172
f 29/177/171 46/178/172 45/179/173
f 45/179/173 44/180/174 29/177/171
f 43/181/175 30/182/176 44/183/177
f 44/183/177 30/182/176 29/184/178
f 96/185/179 24/186/180 61/187/181
f 61/187/181 24/186/180 23/188/182
f 61/187/181 23/188/182 22/189/183
f 22/189/183 21/190/184 61/187/181
f 61/187/181 21/190/184 20/191/185
f 61/187/181 20/191/185 19/192/186
f 19/192/186 18/193/187 61/187/181
f 61/187/181 18/193/187 17/194/188
f 61/187/181 17/194/188 16/195/189
f 16/195/189 15/196/190 61/187/181
f 61/187/181 15/196/190 14/197/191
f 61/187/181 14/197/191 13/198/192
f 13/198/192 26/199/193 61/187/181
f 1/200/2 24/201/1 27/202/194
f 27/202/194 24/201/1 96/203/195
f 27/202/194 96/203/195 94/204/196
f 94/204/196 93/205/197 27/202/194
f 63/206/198 94/207/199 64/208/200
f 64/208/200 94/207/199 71/209/201
f 71/209/201 94/207/199 72/210/202
f 72/210/202 94/207/199 96/211/203
f 72/210/202 96/211/203 73/212/204
f 73/212/204 96/211/203 74/213/205
f 74/213/205 96/211/203 75/214/206
f 75/214/206 96/211/203 76/215/207
f 76/215/207 96/211/203 61/216/208
f 76/215/207 61/216/208 77/217/209
f 77/217/209 61/216/208 78/218/210
f 78/218/210 61/216/208 79/219/211
f 79/219/211 61/216/208 80/220/212
f 80/220/212 61/216/208 60/221/213
f 80/220/212 60/221/213 81/222/214
f 81/222/214 60/221/213 67/223/215
f 67/223/215 60/221/213 68/224/216
# 96 vertices
# 224 texture params
# 216 normals
# 188 facets

# 1 groups
