# Exported by Open CASCADE Technology [dev.opencascade.org]
#  Vertices: 76
#     Faces: 70
mtllib ClosedCone.mtl
g ClosedCone.wrl/Compound/Compound/Compound/Compound/Face
usemtl mat_1
v 0.000000 -50.000000 0.000000
v -8.682410 -49.240398 0.000000
v -17.101000 -46.984600 0.000000
v -25.000000 -43.301300 0.000000
v -32.139400 -38.302200 0.000000
v -38.302200 -32.139400 0.000000
v -43.301300 -25.000000 0.000000
v -46.984600 -17.101000 0.000000
v -49.240398 -8.682410 0.000000
v -50.000000 -0.000000 0.000000
v -49.240398 8.682410 0.000000
v -46.984600 17.101000 0.000000
v -43.301300 25.000000 0.000000
v -38.302200 32.139400 0.000000
v -32.139400 38.302200 0.000000
v -25.000000 43.301300 0.000000
v -17.101000 46.984600 0.000000
v -8.682410 49.240398 0.000000
v -0.000000 50.000000 0.000000
v 0.000000 0.000000 80.000000
vn -0.000000 -0.847998 0.529999
vn -0.147253 -0.835115 0.529999
vn -0.290033 -0.796858 0.529999
vn -0.423999 -0.734388 0.529999
vn -0.545083 -0.649604 0.529999
vn -0.649604 -0.545083 0.529999
vn -0.734388 -0.423999 0.529999
vn -0.796858 -0.290033 0.529999
vn -0.835115 -0.147253 0.529999
vn -0.847998 -0.000000 0.529999
vn -0.835115 0.147253 0.529999
vn -0.796858 0.290033 0.529999
vn -0.734388 0.423999 0.529999
vn -0.649604 0.545083 0.529999
vn -0.545083 0.649604 0.529999
vn -0.423999 0.734388 0.529999
vn -0.290033 0.796858 0.529999
vn -0.147253 0.835115 0.529999
vn -0.000000 0.847998 0.529999
vn -0.000000 0.847998 0.529999
f 20//20 19//19 18//18
f 20//20 18//18 17//17
f 20//20 17//17 16//16
f 20//20 16//16 15//15
f 20//20 15//15 14//14
f 20//20 14//14 13//13
f 20//20 13//13 12//12
f 20//20 12//12 11//11
f 20//20 11//11 10//10
f 20//20 10//10 9//9
f 20//20 9//9 8//8
f 20//20 8//8 7//7
f 20//20 7//7 6//6
f 20//20 6//6 5//5
f 20//20 5//5 4//4
f 20//20 4//4 3//3
f 20//20 3//3 2//2
f 20//20 2//2 1//1
g ClosedCone.wrl/Compound/Compound/Compound/Compound/Face
v -0.000000 50.000000 0.000000
v 8.682410 49.240398 0.000000
v 17.101000 46.984600 0.000000
v 25.000000 43.301300 0.000000
v 32.139400 38.302200 0.000000
v 38.302200 32.139400 0.000000
v 43.301300 25.000000 0.000000
v 46.984600 17.101000 0.000000
v 49.240398 8.682410 0.000000
v 50.000000 0.000000 0.000000
v 49.240398 -8.682410 0.000000
v 46.984600 -17.101000 0.000000
v 43.301300 -25.000000 0.000000
v 38.302200 -32.139400 0.000000
v 32.139400 -38.302200 0.000000
v 25.000000 -43.301300 0.000000
v 17.101000 -46.984600 0.000000
v 8.682410 -49.240398 0.000000
v 0.000000 -50.000000 0.000000
v 0.000000 0.000000 80.000000
vn -0.000000 0.847998 0.529999
vn 0.147253 0.835115 0.529999
vn 0.290033 0.796858 0.529999
vn 0.423999 0.734388 0.529999
vn 0.545083 0.649604 0.529999
vn 0.649604 0.545083 0.529999
vn 0.734388 0.423999 0.529999
vn 0.796858 0.290033 0.529999
vn 0.835115 0.147253 0.529999
vn 0.847998 0.000000 0.529999
vn 0.835115 -0.147253 0.529999
vn 0.796858 -0.290033 0.529999
vn 0.734388 -0.423999 0.529999
vn 0.649604 -0.545083 0.529999
vn 0.545083 -0.649604 0.529999
vn 0.423999 -0.734388 0.529999
vn 0.290033 -0.796858 0.529999
vn 0.147253 -0.835115 0.529999
vn 0.000000 -0.847998 0.529999
vn 0.000000 -0.847998 0.529999
f 40//40 39//39 38//38
f 40//40 38//38 37//37
f 40//40 37//37 36//36
f 40//40 36//36 35//35
f 40//40 35//35 34//34
f 40//40 34//34 33//33
f 40//40 33//33 32//32
f 40//40 32//32 31//31
f 40//40 31//31 30//30
f 40//40 30//30 29//29
f 40//40 29//29 28//28
f 40//40 28//28 27//27
f 40//40 27//27 26//26
f 40//40 26//26 25//25
f 40//40 25//25 24//24
f 40//40 24//24 23//23
f 40//40 23//23 22//22
f 40//40 22//22 21//21
g ClosedCone.wrl/Compound/Compound/Compound/Compound/Face
v -8.682410 -49.240398 0.000000
v -17.101000 -46.984600 0.000000
v -25.000000 -43.301300 0.000000
v -32.139400 -38.302200 0.000000
v -38.302200 -32.139400 0.000000
v -43.301300 -25.000000 0.000000
v -46.984600 -17.101000 0.000000
v -49.240398 -8.682410 0.000000
v -50.000000 -0.000000 0.000000
v -49.240398 8.682410 0.000000
v -46.984600 17.101000 0.000000
v -43.301300 25.000000 0.000000
v -38.302200 32.139400 0.000000
v -32.139400 38.302200 0.000000
v -25.000000 43.301300 0.000000
v -17.101000 46.984600 0.000000
v -8.682410 49.240398 0.000000
v -0.000000 50.000000 0.000000
v 8.682410 49.240398 0.000000
v 17.101000 46.984600 0.000000
v 25.000000 43.301300 0.000000
v 32.139400 38.302200 0.000000
v 38.302200 32.139400 0.000000
v 43.301300 25.000000 0.000000
v 46.984600 17.101000 0.000000
v 49.240398 8.682410 0.000000
v 50.000000 0.000000 0.000000
v 49.240398 -8.682410 0.000000
v 46.984600 -17.101000 0.000000
v 43.301300 -25.000000 0.000000
v 38.302200 -32.139400 0.000000
v 32.139400 -38.302200 0.000000
v 25.000000 -43.301300 0.000000
v 17.101000 -46.984600 0.000000
v 8.682410 -49.240398 0.000000
v 0.000000 -50.000000 0.000000
vn 0.000000 0.000000 -1.000000
vn 0.000000 0.000000 -1.000000
vn 0.000000 0.000000 -1.000000
vn 0.000000 0.000000 -1.000000
vn 0.000000 0.000000 -1.000000
vn 0.000000 0.000000 -1.000000
vn 0.000000 0.000000 -1.000000
vn 0.000000 0.000000 -1.000000
vn 0.000000 0.000000 -1.000000
vn 0.000000 0.000000 -1.000000
vn 0.000000 0.000000 -1.000000
vn 0.000000 0.000000 -1.000000
vn 0.000000 0.000000 -1.000000
vn 0.000000 0.000000 -1.000000
vn 0.000000 0.000000 -1.000000
vn 0.000000 0.000000 -1.000000
vn 0.000000 0.000000 -1.000000
vn 0.000000 0.000000 -1.000000
vn 0.000000 0.000000 -1.000000
vn 0.000000 0.000000 -1.000000
vn 0.000000 0.000000 -1.000000
vn 0.000000 0.000000 -1.000000
vn 0.000000 0.000000 -1.000000
vn 0.000000 0.000000 -1.000000
vn 0.000000 0.000000 -1.000000
vn 0.000000 0.000000 -1.000000
vn 0.000000 0.000000 -1.000000
vn 0.000000 0.000000 -1.000000
vn 0.000000 0.000000 -1.000000
vn 0.000000 0.000000 -1.000000
vn 0.000000 0.000000 -1.000000
vn 0.000000 0.000000 -1.000000
vn 0.000000 0.000000 -1.000000
vn 0.000000 0.000000 -1.000000
vn 0.000000 0.000000 -1.000000
vn 0.000000 0.000000 -1.000000
f 76//76 41//41 75//75
f 41//41 42//42 75//75
f 75//75 42//42 74//74
f 42//42 43//43 74//74
f 74//74 43//43 73//73
f 43//43 44//44 73//73
f 73//73 44//44 72//72
f 44//44 45//45 72//72
f 72//72 45//45 71//71
f 45//45 46//46 71//71
f 71//71 46//46 70//70
f 46//46 47//47 70//70
f 70//70 47//47 69//69
f 47//47 48//48 69//69
f 69//69 48//48 68//68
f 48//48 49//49 68//68
f 68//68 49//49 67//67
f 49//49 50//50 67//67
f 67//67 50//50 66//66
f 50//50 51//51 66//66
f 66//66 51//51 65//65
f 51//51 52//52 65//65
f 65//65 52//52 64//64
f 52//52 53//53 64//64
f 64//64 53//53 63//63
f 53//53 54//54 63//63
f 63//63 54//54 62//62
f 54//54 55//55 62//62
f 62//62 55//55 61//61
f 55//55 56//56 61//61
f 61//61 56//56 60//60
f 56//56 57//57 60//60
f 60//60 57//57 59//59
f 59//59 57//57 58//58
