# Exported by Open CASCADE Technology [dev.opencascade.org]
#  Vertices: 146
#     Faces: 140
# Author:
# Originating system: SIEMENS PLM Software NX2306.1700
# Organization:
# Comments:
mtllib Cylinder.mtl
g model1
usemtl mat_1
v 50.000000 0.000000 0.000000
v 49.240387 8.682409 0.000000
v 46.984631 17.101007 0.000000
v 43.301270 25.000000 0.000000
v 38.302223 32.139381 0.000000
v 32.139381 38.302223 0.000000
v 25.000000 43.301270 0.000000
v 17.101007 46.984631 0.000000
v 8.682409 49.240387 0.000000
v 0.000000 50.000000 0.000000
v -8.682409 49.240387 0.000000
v -17.101007 46.984631 0.000000
v -25.000000 43.301270 0.000000
v -32.139381 38.302223 0.000000
v -38.302223 32.139381 0.000000
v -43.301270 25.000000 0.000000
v -46.984631 17.101007 0.000000
v -49.240387 8.682409 0.000000
v -50.000000 0.000000 0.000000
v -49.240387 -8.682409 0.000000
v -46.984631 -17.101007 0.000000
v -43.301270 -25.000000 0.000000
v -38.302223 -32.139381 0.000000
v -32.139381 -38.302223 0.000000
v -25.000000 -43.301270 0.000000
v -17.101007 -46.984631 0.000000
v -8.682409 -49.240387 0.000000
v -0.000000 -50.000000 0.000000
v 8.682409 -49.240387 0.000000
v 17.101007 -46.984631 0.000000
v 25.000000 -43.301270 0.000000
v 32.139381 -38.302223 0.000000
v 38.302223 -32.139381 0.000000
v 43.301270 -25.000000 0.000000
v 46.984631 -17.101007 0.000000
v 49.240387 -8.682409 0.000000
v 50.000000 0.000000 0.000000
v 50.000000 0.000000 100.000000
v 50.000000 0.000000 100.000000
v 49.240387 8.682409 100.000000
v 46.984631 17.101007 100.000000
v 43.301270 25.000000 100.000000
v 38.302223 32.139381 100.000000
v 32.139381 38.302223 100.000000
v 25.000000 43.301270 100.000000
v 17.101007 46.984631 100.000000
v 8.682409 49.240387 100.000000
v 0.000000 50.000000 100.000000
v -8.682409 49.240387 100.000000
v -17.101007 46.984631 100.000000
v -25.000000 43.301270 100.000000
v -32.139381 38.302223 100.000000
v -38.302223 32.139381 100.000000
v -43.301270 25.000000 100.000000
v -46.984631 17.101007 100.000000
v -49.240387 8.682409 100.000000
v -50.000000 0.000000 100.000000
v -49.240387 -8.682409 100.000000
v -46.984631 -17.101007 100.000000
v -43.301270 -25.000000 100.000000
v -38.302223 -32.139381 100.000000
v -32.139381 -38.302223 100.000000
v -25.000000 -43.301270 100.000000
v -17.101007 -46.984631 100.000000
v -8.682409 -49.240387 100.000000
v -0.000000 -50.000000 100.000000
v 8.682409 -49.240387 100.000000
v 17.101007 -46.984631 100.000000
v 25.000000 -43.301270 100.000000
v 32.139381 -38.302223 100.000000
v 38.302223 -32.139381 100.000000
v 43.301270 -25.000000 100.000000
v 46.984631 -17.101007 100.000000
v 49.240387 -8.682409 100.000000
vn 1.000000 0.000000 -0.000000
vn 0.984808 0.173648 -0.000000
vn 0.939693 0.342020 -0.000000
vn 0.866025 0.500000 -0.000000
vn 0.766044 0.642788 -0.000000
vn 0.642788 0.766044 -0.000000
vn 0.500000 0.866025 -0.000000
vn 0.342020 0.939693 -0.000000
vn 0.173648 0.984808 -0.000000
vn 0.000000 1.000000 -0.000000
vn -0.173648 0.984808 0.000000
vn -0.342020 0.939693 0.000000
vn -0.500000 0.866025 0.000000
vn -0.642788 0.766044 0.000000
vn -0.766044 0.642788 0.000000
vn -0.866025 0.500000 0.000000
vn -0.939693 0.342020 0.000000
vn -0.984808 0.173648 0.000000
vn -1.000000 0.000000 0.000000
vn -0.984808 -0.173648 0.000000
vn -0.939693 -0.342020 0.000000
vn -0.866025 -0.500000 0.000000
vn -0.766044 -0.642788 0.000000
vn -0.642788 -0.766044 0.000000
vn -0.500000 -0.866025 0.000000
vn -0.342020 -0.939693 0.000000
vn -0.173648 -0.984808 0.000000
vn -0.000000 -1.000000 0.000000
vn 0.173648 -0.984808 0.000000
vn 0.342020 -0.939693 0.000000
vn 0.500000 -0.866025 0.000000
vn 0.642788 -0.766044 0.000000
vn 0.766044 -0.642788 0.000000
vn 0.866025 -0.500000 0.000000
vn 0.939693 -0.342020 0.000000
vn 0.984808 -0.173648 0.000000
vn 1.000000 -0.000000 0.000000
vn 1.000000 -0.000000 0.000000
vn 1.000000 0.000000 -0.000000
vn 0.984808 0.173648 -0.000000
vn 0.939693 0.342020 -0.000000
vn 0.866025 0.500000 -0.000000
vn 0.766044 0.642788 -0.000000
vn 0.642788 0.766044 -0.000000
vn 0.500000 0.866025 -0.000000
vn 0.342020 0.939693 -0.000000
vn 0.173648 0.984808 -0.000000
vn 0.000000 1.000000 -0.000000
vn -0.173648 0.984808 0.000000
vn -0.342020 0.939693 0.000000
vn -0.500000 0.866025 0.000000
vn -0.642788 0.766044 0.000000
vn -0.766044 0.642788 0.000000
vn -0.866025 0.500000 0.000000
vn -0.939693 0.342020 0.000000
vn -0.984808 0.173648 0.000000
vn -1.000000 0.000000 0.000000
vn -0.984808 -0.173648 0.000000
vn -0.939693 -0.342020 0.000000
vn -0.866025 -0.500000 0.000000
vn -0.766044 -0.642788 0.000000
vn -0.642788 -0.766044 0.000000
vn -0.500000 -0.866025 0.000000
vn -0.342020 -0.939693 0.000000
vn -0.173648 -0.984808 0.000000
vn -0.000000 -1.000000 0.000000
vn 0.173648 -0.984808 0.000000
vn 0.342020 -0.939693 0.000000
vn 0.500000 -0.866025 0.000000
vn 0.642788 -0.766044 0.000000
vn 0.766044 -0.642788 0.000000
vn 0.866025 -0.500000 0.000000
vn 0.939693 -0.342020 0.000000
vn 0.984808 -0.173648 0.000000
f 40//40 1//1 2//2
f 40//40 39//39 1//1
f 41//41 2//2 3//3
f 41//41 40//40 2//2
f 42//42 3//3 4//4
f 42//42 41//41 3//3
f 43//43 4//4 5//5
f 43//43 42//42 4//4
f 44//44 5//5 6//6
f 44//44 43//43 5//5
f 45//45 44//44 6//6
f 45//45 6//6 7//7
f 46//46 7//7 8//8
f 46//46 45//45 7//7
f 47//47 8//8 9//9
f 47//47 46//46 8//8
f 48//48 9//9 10//10
f 48//48 47//47 9//9
f 49//49 48//48 10//10
f 49//49 10//10 11//11
f 50//50 11//11 12//12
f 50//50 12//12 13//13
f 50//50 49//49 11//11
f 51//51 13//13 14//14
f 51//51 50//50 13//13
f 52//52 51//51 14//14
f 53//53 14//14 15//15
f 53//53 15//15 16//16
f 53//53 52//52 14//14
f 54//54 53//53 16//16
f 55//55 16//16 17//17
f 55//55 17//17 18//18
f 55//55 54//54 16//16
f 56//56 55//55 18//18
f 57//57 18//18 19//19
f 57//57 56//56 18//18
f 58//58 19//19 20//20
f 58//58 57//57 19//19
f 59//59 20//20 21//21
f 59//59 58//58 20//20
f 60//60 21//21 22//22
f 60//60 59//59 21//21
f 61//61 22//22 23//23
f 61//61 23//23 24//24
f 61//61 60//60 22//22
f 62//62 61//61 24//24
f 63//63 24//24 25//25
f 63//63 62//62 24//24
f 64//64 25//25 26//26
f 64//64 63//63 25//25
f 65//65 26//26 27//27
f 65//65 27//27 28//28
f 65//65 64//64 26//26
f 66//66 28//28 29//29
f 66//66 65//65 28//28
f 67//67 66//66 29//29
f 68//68 29//29 30//30
f 68//68 30//30 31//31
f 68//68 67//67 29//29
f 69//69 68//68 31//31
f 70//70 69//69 31//31
f 70//70 31//31 32//32
f 71//71 70//70 32//32
f 71//71 32//32 33//33
f 72//72 71//71 33//33
f 72//72 33//33 34//34
f 73//73 72//72 34//34
f 73//73 34//34 35//35
f 73//73 35//35 36//36
f 74//74 36//36 37//37
f 74//74 73//73 36//36
f 38//38 74//74 37//37
v 50.000000 0.000000 0.000000
v 49.240387 8.682409 0.000000
v 46.984631 17.101007 0.000000
v 43.301270 25.000000 0.000000
v 38.302223 32.139381 0.000000
v 32.139381 38.302223 0.000000
v 25.000000 43.301270 0.000000
v 17.101007 46.984631 0.000000
v 8.682409 49.240387 0.000000
v 0.000000 50.000000 0.000000
v -8.682409 49.240387 0.000000
v -17.101007 46.984631 0.000000
v -25.000000 43.301270 0.000000
v -32.139381 38.302223 0.000000
v -38.302223 32.139381 0.000000
v -43.301270 25.000000 0.000000
v -46.984631 17.101007 0.000000
v -49.240387 8.682409 0.000000
v -50.000000 0.000000 0.000000
v -49.240387 -8.682409 0.000000
v -46.984631 -17.101007 0.000000
v -43.301270 -25.000000 0.000000
v -38.302223 -32.139381 0.000000
v -32.139381 -38.302223 0.000000
v -25.000000 -43.301270 0.000000
v -17.101007 -46.984631 0.000000
v -8.682409 -49.240387 0.000000
v -0.000000 -50.000000 0.000000
v 8.682409 -49.240387 0.000000
v 17.101007 -46.984631 0.000000
v 25.000000 -43.301270 0.000000
v 32.139381 -38.302223 0.000000
v 38.302223 -32.139381 0.000000
v 43.301270 -25.000000 0.000000
v 46.984631 -17.101007 0.000000
v 49.240387 -8.682409 0.000000
vn -0.000000 -0.000000 -1.000000
vn -0.000000 -0.000000 -1.000000
vn -0.000000 -0.000000 -1.000000
vn -0.000000 -0.000000 -1.000000
vn -0.000000 -0.000000 -1.000000
vn -0.000000 -0.000000 -1.000000
vn -0.000000 -0.000000 -1.000000
vn -0.000000 -0.000000 -1.000000
vn -0.000000 -0.000000 -1.000000
vn -0.000000 -0.000000 -1.000000
vn -0.000000 -0.000000 -1.000000
vn -0.000000 -0.000000 -1.000000
vn -0.000000 -0.000000 -1.000000
vn -0.000000 -0.000000 -1.000000
vn -0.000000 -0.000000 -1.000000
vn -0.000000 -0.000000 -1.000000
vn -0.000000 -0.000000 -1.000000
vn -0.000000 -0.000000 -1.000000
vn -0.000000 -0.000000 -1.000000
vn -0.000000 -0.000000 -1.000000
vn -0.000000 -0.000000 -1.000000
vn -0.000000 -0.000000 -1.000000
vn -0.000000 -0.000000 -1.000000
vn -0.000000 -0.000000 -1.000000
vn -0.000000 -0.000000 -1.000000
vn -0.000000 -0.000000 -1.000000
vn -0.000000 -0.000000 -1.000000
vn -0.000000 -0.000000 -1.000000
vn -0.000000 -0.000000 -1.000000
vn -0.000000 -0.000000 -1.000000
vn -0.000000 -0.000000 -1.000000
vn -0.000000 -0.000000 -1.000000
vn -0.000000 -0.000000 -1.000000
vn -0.000000 -0.000000 -1.000000
vn -0.000000 -0.000000 -1.000000
vn -0.000000 -0.000000 -1.000000
f 99//99 98//98 97//97
f 95//95 97//97 96//96
f 95//95 99//99 97//97
f 101//101 100//100 99//99
f 103//103 95//95 94//94
f 103//103 102//102 101//101
f 103//103 101//101 99//99
f 103//103 99//99 95//95
f 92//92 94//94 93//93
f 105//105 104//104 103//103
f 90//90 92//92 91//91
f 106//106 105//105 103//103
f 87//87 89//89 88//88
f 110//110 107//107 106//106
f 110//110 108//108 107//107
f 110//110 109//109 108//108
f 76//76 75//75 110//110
f 82//82 84//84 83//83
f 82//82 85//85 84//84
f 82//82 86//86 85//85
f 82//82 87//87 86//86
f 82//82 90//90 89//89
f 82//82 94//94 92//92
f 82//82 103//103 94//94
f 82//82 92//92 90//90
f 82//82 89//89 87//87
f 81//81 106//106 103//103
f 81//81 110//110 106//106
f 81//81 103//103 82//82
f 81//81 76//76 110//110
f 79//79 78//78 77//77
f 80//80 77//77 76//76
f 80//80 76//76 81//81
f 80//80 79//79 77//77
v 50.000000 0.000000 100.000000
v 49.240387 8.682409 100.000000
v 46.984631 17.101007 100.000000
v 43.301270 25.000000 100.000000
v 38.302223 32.139381 100.000000
v 32.139381 38.302223 100.000000
v 25.000000 43.301270 100.000000
v 17.101007 46.984631 100.000000
v 8.682409 49.240387 100.000000
v 0.000000 50.000000 100.000000
v -8.682409 49.240387 100.000000
v -17.101007 46.984631 100.000000
v -25.000000 43.301270 100.000000
v -32.139381 38.302223 100.000000
v -38.302223 32.139381 100.000000
v -43.301270 25.000000 100.000000
v -46.984631 17.101007 100.000000
v -49.240387 8.682409 100.000000
v -50.000000 0.000000 100.000000
v -49.240387 -8.682409 100.000000
v -46.984631 -17.101007 100.000000
v -43.301270 -25.000000 100.000000
v -38.302223 -32.139381 100.000000
v -32.139381 -38.302223 100.000000
v -25.000000 -43.301270 100.000000
v -17.101007 -46.984631 100.000000
v -8.682409 -49.240387 100.000000
v -0.000000 -50.000000 100.000000
v 8.682409 -49.240387 100.000000
v 17.101007 -46.984631 100.000000
v 25.000000 -43.301270 100.000000
v 32.139381 -38.302223 100.000000
v 38.302223 -32.139381 100.000000
v 43.301270 -25.000000 100.000000
v 46.984631 -17.101007 100.000000
v 49.240387 -8.682409 100.000000
vn 0.000000 0.000000 1.000000
vn 0.000000 0.000000 1.000000
vn 0.000000 0.000000 1.000000
vn 0.000000 0.000000 1.000000
vn 0.000000 0.000000 1.000000
vn 0.000000 0.000000 1.000000
vn 0.000000 0.000000 1.000000
vn 0.000000 0.000000 1.000000
vn 0.000000 0.000000 1.000000
vn 0.000000 0.000000 1.000000
vn 0.000000 0.000000 1.000000
vn 0.000000 0.000000 1.000000
vn 0.000000 0.000000 1.000000
vn 0.000000 0.000000 1.000000
vn 0.000000 0.000000 1.000000
vn 0.000000 0.000000 1.000000
vn 0.000000 0.000000 1.000000
vn 0.000000 0.000000 1.000000
vn 0.000000 0.000000 1.000000
vn 0.000000 0.000000 1.000000
vn 0.000000 0.000000 1.000000
vn 0.000000 0.000000 1.000000
vn 0.000000 0.000000 1.000000
vn 0.000000 0.000000 1.000000
vn 0.000000 0.000000 1.000000
vn 0.000000 0.000000 1.000000
vn 0.000000 0.000000 1.000000
vn 0.000000 0.000000 1.000000
vn 0.000000 0.000000 1.000000
vn 0.000000 0.000000 1.000000
vn 0.000000 0.000000 1.000000
vn 0.000000 0.000000 1.000000
vn 0.000000 0.000000 1.000000
vn 0.000000 0.000000 1.000000
vn 0.000000 0.000000 1.000000
vn 0.000000 0.000000 1.000000
f 135//135 133//133 134//134
f 131//131 132//132 133//133
f 131//131 133//133 135//135
f 137//137 135//135 136//136
f 139//139 130//130 131//131
f 139//139 137//137 138//138
f 139//139 135//135 137//137
f 139//139 131//131 135//135
f 128//128 129//129 130//130
f 141//141 139//139 140//140
f 126//126 127//127 128//128
f 142//142 139//139 141//141
f 123//123 124//124 125//125
f 146//146 142//142 143//143
f 146//146 143//143 144//144
f 146//146 144//144 145//145
f 112//112 146//146 111//111
f 118//118 119//119 120//120
f 118//118 120//120 121//121
f 118//118 121//121 122//122
f 118//118 122//122 123//123
f 118//118 125//125 126//126
f 118//118 128//128 130//130
f 118//118 130//130 139//139
f 118//118 126//126 128//128
f 118//118 123//123 125//125
f 117//117 139//139 142//142
f 117//117 142//142 146//146
f 117//117 118//118 139//139
f 117//117 146//146 112//112
f 115//115 113//113 114//114
f 116//116 112//112 113//113
f 116//116 117//117 112//112
f 116//116 113//113 115//115
