# Exported by Open CASCADE Technology [dev.opencascade.org]
#  Vertices: 52
#     Faces: 48
mtllib OpenCylinder.mtl
g OpenCylinder.wrl/Compound/Compound/Compound/Compound/Compound/Face
usemtl mat_1
v -19.318501 -5.176380 20.000000
v -17.320499 -10.000000 20.000000
v -14.142099 -14.142099 20.000000
v -10.000000 -17.320499 20.000000
v -5.176380 -19.318501 20.000000
v -0.000000 -20.000000 20.000000
v 5.176380 -19.318501 20.000000
v 10.000000 -17.320499 20.000000
v 14.142099 -14.142099 20.000000
v 17.320499 -10.000000 20.000000
v 19.318501 -5.176380 20.000000
v 20.000000 0.000000 20.000000
v 20.000000 0.000000 -20.000000
v 19.318501 -5.176380 -20.000000
v 17.320499 -10.000000 -20.000000
v 14.142099 -14.142099 -20.000000
v 10.000000 -17.320499 -20.000000
v 5.176380 -19.318501 -20.000000
v -0.000000 -20.000000 -20.000000
v -5.176380 -19.318501 -20.000000
v -10.000000 -17.320499 -20.000000
v -14.142099 -14.142099 -20.000000
v -17.320499 -10.000000 -20.000000
v -19.318501 -5.176380 -20.000000
v -20.000000 0.000000 -20.000000
v -20.000000 0.000000 20.000000
vn 0.965926 0.258819 0.000000
vn 0.866025 0.500000 0.000000
vn 0.707107 0.707107 0.000000
vn 0.500000 0.866025 0.000000
vn 0.258819 0.965926 0.000000
vn 0.000000 1.000000 0.000000
vn -0.258819 0.965926 0.000000
vn -0.500000 0.866025 0.000000
vn -0.707107 0.707107 0.000000
vn -0.866025 0.500000 0.000000
vn -0.965926 0.258819 0.000000
vn -1.000000 0.000000 0.000000
vn -1.000000 0.000000 0.000000
vn -0.965926 0.258819 0.000000
vn -0.866025 0.500000 0.000000
vn -0.707107 0.707107 0.000000
vn -0.500000 0.866025 0.000000
vn -0.258819 0.965926 0.000000
vn 0.000000 1.000000 0.000000
vn 0.258819 0.965926 0.000000
vn 0.500000 0.866025 0.000000
vn 0.707107 0.707107 0.000000
vn 0.866025 0.500000 0.000000
vn 0.965926 0.258819 0.000000
vn 1.000000 -0.000000 0.000000
vn 1.000000 -0.000000 0.000000
f 19//19 7//7 18//18
f 7//7 8//8 18//18
f 18//18 8//8 17//17
f 8//8 9//9 17//17
f 17//17 9//9 16//16
f 9//9 10//10 16//16
f 16//16 10//10 15//15
f 10//10 11//11 15//15
f 15//15 11//11 14//14
f 11//11 12//12 14//14
f 14//14 12//12 13//13
f 7//7 19//19 6//6
f 19//19 20//20 6//6
f 6//6 20//20 5//5
f 20//20 21//21 5//5
f 5//5 21//21 4//4
f 21//21 22//22 4//4
f 4//4 22//22 3//3
f 22//22 23//23 3//3
f 3//3 23//23 2//2
f 23//23 24//24 2//2
f 2//2 24//24 1//1
f 24//24 25//25 1//1
f 1//1 25//25 26//26
g OpenCylinder.wrl/Compound/Compound/Compound/Compound/Compound/Face
v 19.318501 5.176380 20.000000
v 17.320499 10.000000 20.000000
v 14.142099 14.142099 20.000000
v 10.000000 17.320499 20.000000
v 5.176380 19.318501 20.000000
v 0.000000 20.000000 20.000000
v -5.176380 19.318501 20.000000
v -10.000000 17.320499 20.000000
v -14.142099 14.142099 20.000000
v -17.320499 10.000000 20.000000
v -19.318501 5.176380 20.000000
v -20.000000 0.000000 20.000000
v -20.000000 0.000000 -20.000000
v -19.318501 5.176380 -20.000000
v -17.320499 10.000000 -20.000000
v -14.142099 14.142099 -20.000000
v -10.000000 17.320499 -20.000000
v -5.176380 19.318501 -20.000000
v 0.000000 20.000000 -20.000000
v 5.176380 19.318501 -20.000000
v 10.000000 17.320499 -20.000000
v 14.142099 14.142099 -20.000000
v 17.320499 10.000000 -20.000000
v 19.318501 5.176380 -20.000000
v 20.000000 0.000000 -20.000000
v 20.000000 0.000000 20.000000
vn -0.965926 -0.258819 -0.000000
vn -0.866025 -0.500000 -0.000000
vn -0.707107 -0.707107 -0.000000
vn -0.500000 -0.866025 -0.000000
vn -0.258819 -0.965926 -0.000000
vn -0.000000 -1.000000 -0.000000
vn 0.258819 -0.965926 0.000000
vn 0.500000 -0.866025 0.000000
vn 0.707107 -0.707107 0.000000
vn 0.866025 -0.500000 0.000000
vn 0.965926 -0.258819 0.000000
vn 1.000000 -0.000000 0.000000
vn 1.000000 -0.000000 0.000000
vn 0.965926 -0.258819 0.000000
vn 0.866025 -0.500000 0.000000
vn 0.707107 -0.707107 0.000000
vn 0.500000 -0.866025 0.000000
vn 0.258819 -0.965926 0.000000
vn -0.000000 -1.000000 -0.000000
vn -0.258819 -0.965926 -0.000000
vn -0.500000 -0.866025 -0.000000
vn -0.707107 -0.707107 -0.000000
vn -0.866025 -0.500000 -0.000000
vn -0.965926 -0.258819 -0.000000
vn -1.000000 -0.000000 -0.000000
vn -1.000000 -0.000000 -0.000000
f 45//45 33//33 44//44
f 33//33 34//34 44//44
f 44//44 34//34 43//43
f 34//34 35//35 43//43
f 43//43 35//35 42//42
f 35//35 36//36 42//42
f 42//42 36//36 41//41
f 36//36 37//37 41//41
f 41//41 37//37 40//40
f 37//37 38//38 40//40
f 40//40 38//38 39//39
f 33//33 45//45 32//32
f 45//45 46//46 32//32
f 32//32 46//46 31//31
f 46//46 47//47 31//31
f 31//31 47//47 30//30
f 47//47 48//48 30//30
f 30//30 48//48 29//29
f 48//48 49//49 29//29
f 29//29 49//49 28//28
f 49//49 50//50 28//28
f 28//28 50//50 27//27
f 50//50 51//51 27//27
f 27//27 51//51 52//52
